<svg xmlns="http://www.w3.org/2000/svg" xmlns:xlink="http://www.w3.org/1999/xlink" width="413" zoomAndPan="magnify" viewBox="0 0 309.75 183.000001" height="244" preserveAspectRatio="xMidYMid meet" version="1.0"><defs><g/><clipPath id="836a475c60"><path d="M 226.332031 40.382812 L 299.433594 40.382812 L 299.433594 85.882812 L 226.332031 85.882812 Z M 226.332031 40.382812 " clip-rule="nonzero"/></clipPath></defs><g fill="#ffffff" fill-opacity="1"><g transform="translate(18.818426, 94.150445)"><g><path d="M 16.203125 -63.34375 L 63.71875 -63.34375 L 63.71875 -31.5 L 52.671875 -31.5 L 52.671875 -30.859375 C 55.691406 -30.191406 58.132812 -28.96875 60 -27.1875 C 61.875 -25.414062 63.1875 -23.367188 63.9375 -21.046875 C 64.6875 -18.722656 64.910156 -16.320312 64.609375 -13.84375 C 64.316406 -11.375 63.535156 -9.082031 62.265625 -6.96875 C 60.992188 -4.851562 59.269531 -3.144531 57.09375 -1.84375 C 54.925781 -0.550781 52.304688 0.09375 49.234375 0.09375 L 2.078125 0.09375 L 2.078125 -31.5 L 14.84375 -31.5 L 14.84375 -32.125 C 10.4375 -32.96875 6.9375 -34.734375 4.34375 -37.421875 C 1.75 -40.109375 0.453125 -43.503906 0.453125 -47.609375 C 0.453125 -50.316406 1.160156 -52.878906 2.578125 -55.296875 C 3.992188 -57.710938 5.894531 -59.65625 8.28125 -61.125 C 10.664062 -62.601562 13.304688 -63.34375 16.203125 -63.34375 Z M 16.203125 -63.34375 "/></g></g></g><g fill="#ffffff" fill-opacity="1"><g transform="translate(87.961755, 94.150445)"><g><path d="M 46.609375 -31.578125 L 46.609375 0.09375 L 14.9375 0.09375 L 14.9375 -31.578125 L 1.8125 -31.578125 L 1.8125 -63.34375 L 58.921875 -63.34375 L 58.921875 -31.578125 Z M 46.609375 -31.578125 "/></g></g></g><g fill="#ffffff" fill-opacity="1"><g transform="translate(143.698105, 94.150445)"><g><path d="M -2.53125 0 L 37.46875 -67.78125 L 77.46875 0 Z M -2.53125 0 "/></g></g></g><g fill="#ffffff" fill-opacity="1"><g transform="translate(223.611171, 94.150445)"><g><path d="M 33.125 -63.34375 C 36.6875 -63.34375 40.019531 -62.679688 43.125 -61.359375 C 46.226562 -60.035156 48.972656 -58.195312 51.359375 -55.84375 C 53.742188 -53.488281 55.597656 -50.738281 56.921875 -47.59375 C 58.253906 -44.457031 58.921875 -41.113281 58.921875 -37.5625 C 58.921875 -33.457031 58.03125 -29.65625 56.25 -26.15625 C 54.46875 -22.65625 52.066406 -19.726562 49.046875 -17.375 L 58.375 0.09375 L 2.71875 0.09375 C 2.71875 -7.6875 2.71875 -14.050781 2.71875 -19 C 2.71875 -23.945312 2.71875 -27.820312 2.71875 -30.625 C 2.71875 -33.4375 2.71875 -35.472656 2.71875 -36.734375 C 2.71875 -38.003906 2.71875 -38.820312 2.71875 -39.1875 C 2.71875 -39.550781 2.71875 -39.773438 2.71875 -39.859375 C 2.71875 -39.953125 2.71875 -40.238281 2.71875 -40.71875 C 2.71875 -41.207031 2.71875 -42.191406 2.71875 -43.671875 C 2.71875 -45.148438 2.71875 -47.441406 2.71875 -50.546875 C 2.71875 -53.648438 2.71875 -57.914062 2.71875 -63.34375 Z M 33.125 -63.34375 "/></g></g></g><g clip-path="url(#836a475c60)"><path fill="#000000" d="M 251.0625 40.382812 L 254.625 53.828125 L 299.421875 52.152344 L 257.203125 67.816406 L 263.40625 85.863281 L 246.335938 73.132812 L 228.714844 83.074219 L 237.871094 65.722656 L 226.324219 56.058594 L 242.21875 54.664062 Z M 251.0625 40.382812 " fill-opacity="1" fill-rule="nonzero"/></g><g fill="#fffaf3" fill-opacity="1"><g transform="translate(27.224626, 125.362652)"><g><path d="M 14 0 L 8.609375 0 L 1 -21.515625 L 5.671875 -21.515625 L 11.375 -3.296875 L 17.171875 -21.515625 L 21.765625 -21.515625 Z M 14 0 "/></g></g></g><g fill="#fffaf3" fill-opacity="1"><g transform="translate(65.139671, 125.362652)"><g><path d="M 12.21875 -21.9375 C 15.5 -21.9375 18.085938 -20.921875 19.984375 -18.890625 C 21.890625 -16.867188 22.84375 -14.15625 22.84375 -10.75 C 22.84375 -7.363281 21.890625 -4.648438 19.984375 -2.609375 C 18.085938 -0.578125 15.5 0.4375 12.21875 0.4375 C 8.9375 0.4375 6.34375 -0.578125 4.4375 -2.609375 C 2.539062 -4.648438 1.59375 -7.363281 1.59375 -10.75 C 1.59375 -14.15625 2.535156 -16.867188 4.421875 -18.890625 C 6.316406 -20.921875 8.914062 -21.9375 12.21875 -21.9375 Z M 7.703125 -4.875 C 8.796875 -3.476562 10.300781 -2.78125 12.21875 -2.78125 C 14.132812 -2.78125 15.628906 -3.484375 16.703125 -4.890625 C 17.785156 -6.304688 18.328125 -8.257812 18.328125 -10.75 C 18.328125 -13.269531 17.785156 -15.226562 16.703125 -16.625 C 15.628906 -18.03125 14.132812 -18.734375 12.21875 -18.734375 C 10.289062 -18.734375 8.785156 -18.03125 7.703125 -16.625 C 6.617188 -15.226562 6.078125 -13.269531 6.078125 -10.75 C 6.078125 -8.238281 6.617188 -6.28125 7.703125 -4.875 Z M 7.703125 -4.875 "/></g></g></g><g fill="#fffaf3" fill-opacity="1"><g transform="translate(105.455363, 125.362652)"><g><path d="M 12.375 -8.328125 L 12.375 0 L 8.109375 0 L 8.109375 -8.328125 L 0.5 -21.515625 L 5.359375 -21.515625 L 10.375 -12.125 L 15.25 -21.515625 L 19.984375 -21.515625 Z M 12.375 -8.328125 "/></g></g></g><g fill="#fffaf3" fill-opacity="1"><g transform="translate(141.437415, 125.362652)"><g><path d="M 14.4375 -6.484375 L 7.203125 -6.484375 L 5.046875 0 L 0.46875 0 L 8.234375 -21.515625 L 13.625 -21.515625 L 21.234375 0 L 16.546875 0 Z M 10.84375 -17.828125 L 8.296875 -9.875 L 13.34375 -9.875 Z M 10.84375 -17.828125 "/></g></g></g><g fill="#fffaf3" fill-opacity="1"><g transform="translate(178.97832, 125.362652)"><g><path d="M 12.625 -10.96875 L 21.296875 -10.96875 L 21.296875 0 L 17.828125 0 L 17.546875 -3.484375 L 16.578125 -1.3125 C 15.398438 -0.144531 13.65625 0.4375 11.34375 0.4375 C 8.351562 0.4375 5.976562 -0.550781 4.21875 -2.53125 C 2.46875 -4.519531 1.59375 -7.21875 1.59375 -10.625 C 1.59375 -14.070312 2.585938 -16.816406 4.578125 -18.859375 C 6.578125 -20.910156 9.113281 -21.9375 12.1875 -21.9375 C 14.988281 -21.9375 17.179688 -21.253906 18.765625 -19.890625 C 20.347656 -18.535156 21.253906 -16.75 21.484375 -14.53125 L 21.515625 -14.21875 L 17.203125 -14.21875 L 17.140625 -14.53125 C 16.578125 -17.332031 14.90625 -18.734375 12.125 -18.734375 C 10.351562 -18.734375 8.910156 -18.023438 7.796875 -16.609375 C 6.691406 -15.203125 6.140625 -13.289062 6.140625 -10.875 C 6.140625 -8.28125 6.675781 -6.28125 7.75 -4.875 C 8.832031 -3.476562 10.25 -2.78125 12 -2.78125 C 13.394531 -2.78125 14.550781 -3.203125 15.46875 -4.046875 C 16.394531 -4.898438 16.960938 -6.085938 17.171875 -7.609375 L 12.625 -7.609375 Z M 12.625 -10.96875 "/></g></g></g><g fill="#fffaf3" fill-opacity="1"><g transform="translate(218.421049, 125.362652)"><g><path d="M 18.296875 -3.390625 L 18.296875 0 L 2.78125 0 L 2.78125 -21.515625 L 17.984375 -21.515625 L 17.984375 -18.140625 L 7.078125 -18.140625 L 7.078125 -12.46875 L 17.203125 -12.46875 L 17.203125 -9.078125 L 7.078125 -9.078125 L 7.078125 -3.390625 Z M 18.296875 -3.390625 "/></g></g></g><g fill="#fffaf3" fill-opacity="1"><g transform="translate(254.091316, 125.362652)"><g><path d="M 18.359375 -5.421875 C 18.628906 -2.867188 19.148438 -1.0625 19.921875 0 L 15.21875 0 C 14.695312 -1.4375 14.34375 -3.035156 14.15625 -4.796875 C 13.863281 -7.234375 12.894531 -8.515625 11.25 -8.640625 C 10.851562 -8.660156 10.289062 -8.671875 9.5625 -8.671875 L 7.078125 -8.671875 L 7.078125 0 L 2.78125 0 L 2.78125 -21.515625 L 10.625 -21.515625 C 11.8125 -21.515625 12.851562 -21.460938 13.75 -21.359375 C 15.445312 -21.148438 16.8125 -20.582031 17.84375 -19.65625 C 18.875 -18.726562 19.390625 -17.390625 19.390625 -15.640625 C 19.390625 -14.296875 19.015625 -13.179688 18.265625 -12.296875 C 17.515625 -11.410156 16.488281 -10.78125 15.1875 -10.40625 C 17.03125 -9.695312 18.085938 -8.035156 18.359375 -5.421875 Z M 7.078125 -11.875 L 10.03125 -11.875 C 10.882812 -11.875 11.46875 -11.882812 11.78125 -11.90625 C 13.84375 -12.09375 14.875 -13.125 14.875 -15 C 14.875 -15.96875 14.628906 -16.6875 14.140625 -17.15625 C 13.648438 -17.625 12.945312 -17.921875 12.03125 -18.046875 C 11.53125 -18.109375 10.925781 -18.140625 10.21875 -18.140625 L 7.078125 -18.140625 Z M 7.078125 -11.875 "/></g></g></g><g fill="#ffffff" fill-opacity="1"><g transform="translate(71.692683, 158.317984)"><g><path d="M 1.375 -21.8125 L 24.5625 -21.8125 L 24.5625 -18.953125 L 3.03125 -18.953125 C 3.351562 -18.953125 3.632812 -18.832031 3.875 -18.59375 C 4.113281 -18.351562 4.234375 -18.054688 4.234375 -17.703125 L 4.234375 -9.234375 L 13.875 -9.234375 L 13.875 -6.359375 L 4.234375 -6.359375 L 4.234375 3.359375 L 24.5625 3.359375 L 24.5625 6.234375 L 1.375 6.234375 Z M 1.375 -21.8125 "/></g></g></g><g fill="#ffffff" fill-opacity="1"><g transform="translate(114.09726, 158.317984)"><g><path d="M 4.234375 2.125 C 4.234375 2.457031 4.113281 2.742188 3.875 2.984375 C 3.632812 3.234375 3.351562 3.359375 3.03125 3.359375 L 24.5625 3.359375 L 24.5625 6.234375 L 1.375 6.234375 L 1.375 -21.8125 L 4.234375 -21.8125 Z M 4.234375 2.125 "/></g></g></g><g fill="#ffffff" fill-opacity="1"><g transform="translate(156.501836, 158.317984)"><g><path d="M 4.234375 6.234375 L 1.375 6.234375 L 1.375 -21.8125 L 4.234375 -21.8125 Z M 4.234375 6.234375 "/></g></g></g><g fill="#ffffff" fill-opacity="1"><g transform="translate(178.578809, 158.317984)"><g><path d="M 11.53125 6.234375 L 11.53125 -18.953125 L 1.375 -18.953125 L 1.375 -21.8125 L 24.5625 -21.8125 L 24.5625 -18.953125 L 13.15625 -18.953125 C 13.507812 -18.953125 13.804688 -18.832031 14.046875 -18.59375 C 14.285156 -18.351562 14.40625 -18.054688 14.40625 -17.703125 L 14.40625 6.234375 Z M 11.53125 6.234375 "/></g></g></g><g fill="#ffffff" fill-opacity="1"><g transform="translate(220.98338, 158.317984)"><g><path d="M 1.375 -21.8125 L 24.5625 -21.8125 L 24.5625 -18.953125 L 3.03125 -18.953125 C 3.351562 -18.953125 3.632812 -18.832031 3.875 -18.59375 C 4.113281 -18.351562 4.234375 -18.054688 4.234375 -17.703125 L 4.234375 -9.234375 L 13.875 -9.234375 L 13.875 -6.359375 L 4.234375 -6.359375 L 4.234375 3.359375 L 24.5625 3.359375 L 24.5625 6.234375 L 1.375 6.234375 Z M 1.375 -21.8125 "/></g></g></g></svg>